<svg version="1.1" id="body_1" xmlns="http://www.w3.org/2000/svg" x="0" y="0" viewBox="0 0 96 51" style="enable-background:new 0 0 96 51" xml:space="preserve"><style>.st0{fill:#272727}</style><path class="st0" d="M49 19.4h-3l2.1-7.2c.1-.3 0-.6-.3-.7-.1-.1-.2-.1-.3-.1-.2 0-.3.1-.5.2l-9.6 10.9c-.2.2-.2.4-.1.7.1.2.3.4.6.4h2.9l-2.1 7.2c-.1.3 0 .6.3.7.1.1.2.1.3.1.2 0 .3-.1.5-.2l9.6-10.9c.1-.1.2-.3.2-.4 0-.4-.3-.7-.6-.7z"/><path class="st0" d="M94.6 20.7c-1.7-3-7.3-7.1-14.4-8.5-6.5-1.3-13.2-1.7-16.1-1.7-.1-.1-.2-.2-.3-.2C60.3 7.8 52.1 2 43.2 2H29.9c-.7 0-1.4.1-2.1.3L6.6 8.9C2.9 10.1.4 13.5.4 17.3v11.9c0 6.5 6.2 9.9 11.4 10.7h.2c0 .3.1.5.2.8 1.2 5 5.6 8.5 10.7 8.5.9 0 1.7-.1 2.6-.3 2.9-.7 5.3-2.4 6.8-4.9.8-1.2 1.3-2.6 1.5-4h29.7c.9 5.2 5.4 9.3 10.9 9.3s10-4 10.9-9.3h5.3c2.8 0 5-2.2 5-5V24.4c-.1-1.3-.4-2.6-1-3.7zM29.5 38.2c0 .3 0 .5-.1.8v.1c0 .3-.1.6-.2.8-.6 2.2-2.4 4.1-4.8 4.6-.5.1-1 .2-1.5.2-2.9 0-5.6-2-6.4-4.9-.1-.5-.2-1.1-.2-1.6V37.3c0-.2 0-.3.1-.4v-.2c0-.2.1-.3.1-.4 0-.1 0-.1.1-.2s.1-.3.2-.4c.8-1.9 2.4-3.3 4.5-3.9.5-.1 1-.2 1.5-.2 2.6 0 5 1.5 6 3.9 0 .1 0 .1.1.2.1.3.2.6.3.8 0 .1 0 .1.1.2 0 .1 0 .2.1.3 0 .1 0 .3.1.4V38.2zm51.4.8v.1c0 .3-.1.5-.2.8-.8 2.8-3.3 4.8-6.3 4.8s-5.6-2-6.3-4.8c-.1-.3-.1-.5-.2-.8V39c0-.3-.1-.6-.1-.8V37.4c0-.2.1-.4.1-.6.1-.4.2-.8.4-1.2 1-2.3 3.3-3.9 6-3.9s5 1.6 6 3.9c.2.4.3.8.4 1.3 0 .2.1.4.1.6V38.3c.1.1.1.4.1.7zm10.2-4.1c0 .3-.3.6-.6.6H85c-1.2-4.8-5.5-8.4-10.7-8.4-5.2 0-9.5 3.6-10.7 8.4h-30c-1.2-4.9-5.6-8.4-10.7-8.4-.9 0-1.7.1-2.6.3-2.9.7-5.3 2.4-6.8 4.9-.6 1-1 2-1.3 3.1-1.3-.2-7.3-1.6-7.3-6.3V17.3c0-1.9 1.2-3.6 3.1-4.2l21.2-6.7c.2-.1.5-.1.7-.1h13.3c8 0 15.9 6 18.6 7.9.5.4 1.2.6 1.8.6 2.5.1 9.2.3 15.7 1.7 6.2 1.3 10.5 4.7 11.4 6.3.3.5.4 1 .4 1.6v10.5z"/></svg>